<svg xmlns="http://www.w3.org/2000/svg" viewBox="0 0 592 450" width="592" height="450" style="max-width:592px;width:100%;font-family:sans-serif"><text x="225" y="25" text-anchor="middle" fill="currentColor" style="font-size:25px">Palette</text><path d="M 225 225 L 225.00 40.00 A 185 185 0 0 1 317.50 64.79 Z" fill="#ECECFF" fill-opacity="0.7" stroke="var(--mermaid-data-stroke, #444)" stroke-width="2"/><text x="260.9" y="91.0" text-anchor="middle" dominant-baseline="middle" fill="var(--mermaid-data-text, #1a1a1a)" style="font-size:17px">8%</text><path d="M 225 225 L 317.50 64.79 A 185 185 0 0 1 385.21 132.50 Z" fill="#ffffde" fill-opacity="0.7" stroke="var(--mermaid-data-stroke, #444)" stroke-width="2"/><text x="323.1" y="126.9" text-anchor="middle" dominant-baseline="middle" fill="var(--mermaid-data-text, #1a1a1a)" style="font-size:17px">8%</text><path d="M 225 225 L 385.21 132.50 A 185 185 0 0 1 410.00 225.00 Z" fill="hsl(80, 100%, 56.2745098039%)" fill-opacity="0.7" stroke="var(--mermaid-data-stroke, #444)" stroke-width="2"/><text x="359.0" y="189.1" text-anchor="middle" dominant-baseline="middle" fill="var(--mermaid-data-text, #1a1a1a)" style="font-size:17px">8%</text><path d="M 225 225 L 410.00 225.00 A 185 185 0 0 1 385.21 317.50 Z" fill="hsl(240, 100%, 86.2745098039%)" fill-opacity="0.7" stroke="var(--mermaid-data-stroke, #444)" stroke-width="2"/><text x="359.0" y="260.9" text-anchor="middle" dominant-baseline="middle" fill="var(--mermaid-data-text, #1a1a1a)" style="font-size:17px">8%</text><path d="M 225 225 L 385.21 317.50 A 185 185 0 0 1 317.50 385.21 Z" fill="hsl(60, 100%, 86.2745098039%)" fill-opacity="0.7" stroke="var(--mermaid-data-stroke, #444)" stroke-width="2"/><text x="323.1" y="323.1" text-anchor="middle" dominant-baseline="middle" fill="var(--mermaid-data-text, #1a1a1a)" style="font-size:17px">8%</text><path d="M 225 225 L 317.50 385.21 A 185 185 0 0 1 225.00 410.00 Z" fill="hsl(80, 100%, 86.2745098039%)" fill-opacity="0.7" stroke="var(--mermaid-data-stroke, #444)" stroke-width="2"/><text x="260.9" y="359.0" text-anchor="middle" dominant-baseline="middle" fill="var(--mermaid-data-text, #1a1a1a)" style="font-size:17px">8%</text><path d="M 225 225 L 225.00 410.00 A 185 185 0 0 1 132.50 385.21 Z" fill="hsl(120, 100%, 86.2745098039%)" fill-opacity="0.7" stroke="var(--mermaid-data-stroke, #444)" stroke-width="2"/><text x="189.1" y="359.0" text-anchor="middle" dominant-baseline="middle" fill="var(--mermaid-data-text, #1a1a1a)" style="font-size:17px">8%</text><path d="M 225 225 L 132.50 385.21 A 185 185 0 0 1 64.79 317.50 Z" fill="hsl(300, 100%, 86.2745098039%)" fill-opacity="0.7" stroke="var(--mermaid-data-stroke, #444)" stroke-width="2"/><text x="126.9" y="323.1" text-anchor="middle" dominant-baseline="middle" fill="var(--mermaid-data-text, #1a1a1a)" style="font-size:17px">8%</text><path d="M 225 225 L 64.79 317.50 A 185 185 0 0 1 40.00 225.00 Z" fill="hsl(0, 100%, 86.2745098039%)" fill-opacity="0.7" stroke="var(--mermaid-data-stroke, #444)" stroke-width="2"/><text x="91.0" y="260.9" text-anchor="middle" dominant-baseline="middle" fill="var(--mermaid-data-text, #1a1a1a)" style="font-size:17px">8%</text><path d="M 225 225 L 40.00 225.00 A 185 185 0 0 1 64.79 132.50 Z" fill="hsl(150, 100%, 86.2745098039%)" fill-opacity="0.7" stroke="var(--mermaid-data-stroke, #444)" stroke-width="2"/><text x="91.0" y="189.1" text-anchor="middle" dominant-baseline="middle" fill="var(--mermaid-data-text, #1a1a1a)" style="font-size:17px">8%</text><path d="M 225 225 L 64.79 132.50 A 185 185 0 0 1 132.50 64.79 Z" fill="hsl(0, 100%, 86.2745098039%)" fill-opacity="0.7" stroke="var(--mermaid-data-stroke, #444)" stroke-width="2"/><text x="126.9" y="126.9" text-anchor="middle" dominant-baseline="middle" fill="var(--mermaid-data-text, #1a1a1a)" style="font-size:17px">8%</text><path d="M 225 225 L 132.50 64.79 A 185 185 0 0 1 225.00 40.00 Z" fill="hsl(210, 100%, 86.2745098039%)" fill-opacity="0.7" stroke="var(--mermaid-data-stroke, #444)" stroke-width="2"/><text x="189.1" y="91.0" text-anchor="middle" dominant-baseline="middle" fill="var(--mermaid-data-text, #1a1a1a)" style="font-size:17px">8%</text><circle cx="225" cy="225" r="185" fill="none" stroke="var(--mermaid-data-stroke, #444)" stroke-width="2"/><rect x="441" y="93.0" width="18" height="18" fill="#ECECFF"/><text x="463" y="107.0" fill="currentColor" style="font-size:17px">Color 0</text><rect x="441" y="115.0" width="18" height="18" fill="#ffffde"/><text x="463" y="129.0" fill="currentColor" style="font-size:17px">Color 1</text><rect x="441" y="137.0" width="18" height="18" fill="hsl(80, 100%, 56.2745098039%)"/><text x="463" y="151.0" fill="currentColor" style="font-size:17px">Color 2</text><rect x="441" y="159.0" width="18" height="18" fill="hsl(240, 100%, 86.2745098039%)"/><text x="463" y="173.0" fill="currentColor" style="font-size:17px">Color 3</text><rect x="441" y="181.0" width="18" height="18" fill="hsl(60, 100%, 86.2745098039%)"/><text x="463" y="195.0" fill="currentColor" style="font-size:17px">Color 4</text><rect x="441" y="203.0" width="18" height="18" fill="hsl(80, 100%, 86.2745098039%)"/><text x="463" y="217.0" fill="currentColor" style="font-size:17px">Color 5</text><rect x="441" y="225.0" width="18" height="18" fill="hsl(120, 100%, 86.2745098039%)"/><text x="463" y="239.0" fill="currentColor" style="font-size:17px">Color 6</text><rect x="441" y="247.0" width="18" height="18" fill="hsl(300, 100%, 86.2745098039%)"/><text x="463" y="261.0" fill="currentColor" style="font-size:17px">Color 7</text><rect x="441" y="269.0" width="18" height="18" fill="hsl(0, 100%, 86.2745098039%)"/><text x="463" y="283.0" fill="currentColor" style="font-size:17px">Color 8</text><rect x="441" y="291.0" width="18" height="18" fill="hsl(150, 100%, 86.2745098039%)"/><text x="463" y="305.0" fill="currentColor" style="font-size:17px">Color 9</text><rect x="441" y="313.0" width="18" height="18" fill="hsl(0, 100%, 86.2745098039%)"/><text x="463" y="327.0" fill="currentColor" style="font-size:17px">Color 10</text><rect x="441" y="335.0" width="18" height="18" fill="hsl(210, 100%, 86.2745098039%)"/><text x="463" y="349.0" fill="currentColor" style="font-size:17px">Color 11</text></svg>