<svg xmlns="http://www.w3.org/2000/svg" viewBox="0 0 442 442" width="442" height="442" style="font-family:sans-serif;font-size:14px"><rect x="232.0" y="20.0" width="190.0" height="190.0" fill="var(--mermaid-quadrant-1, #eef4ff)"/><rect x="42.0" y="20.0" width="190.0" height="190.0" fill="var(--mermaid-quadrant-2, #fff7e8)"/><rect x="42.0" y="210.0" width="190.0" height="190.0" fill="var(--mermaid-quadrant-3, #fdeef6)"/><rect x="232.0" y="210.0" width="190.0" height="190.0" fill="var(--mermaid-quadrant-4, #eefaf1)"/><line x1="42.0" y1="20.0" x2="422.0" y2="20.0" stroke="currentColor"/><line x1="42.0" y1="400.0" x2="422.0" y2="400.0" stroke="currentColor"/><line x1="42.0" y1="20.0" x2="42.0" y2="400.0" stroke="currentColor"/><line x1="422.0" y1="20.0" x2="422.0" y2="400.0" stroke="currentColor"/><line x1="232.0" y1="20.0" x2="232.0" y2="200.0" stroke="currentColor"/><line x1="232.0" y1="219.0" x2="232.0" y2="400.0" stroke="currentColor"/><line x1="42.0" y1="210.0" x2="161.0" y2="210.0" stroke="currentColor"/><line x1="232.5" y1="210.0" x2="422.0" y2="210.0" stroke="currentColor"/><circle cx="156.0" cy="210.0" r="5" fill="#3b82f6" stroke="var(--surface, #fff)" stroke-width="1"/><text x="164.0" y="214.0" font-size="12" fill="currentColor">Long label</text><circle cx="175.0" cy="210.0" r="5" fill="#ef4444" stroke="var(--surface, #fff)" stroke-width="1"/><text x="183.0" y="214.0" font-size="12" fill="currentColor">B</text></svg>