<svg xmlns="http://www.w3.org/2000/svg" viewBox="0 0 200 552" width="200" height="552" style="font-family:Arial, Helvetica, sans-serif;font-size:13px"><defs><marker id="mmd-c4-arrow" viewBox="0 0 10 10" refX="9" refY="5" markerWidth="8" markerHeight="8" orient="auto-start-reverse"><path d="M 0 0 L 10 5 L 0 10 z" fill="currentColor"/></marker></defs><text x="100.0" y="20" text-anchor="middle" font-weight="bold" font-size="17" fill="currentColor">System</text><rect x="20.0" y="205.0" width="160.0" height="327.0" fill="none" stroke="currentColor" stroke-dasharray="6 4" rx="4" opacity="0.7"/><text x="28.0" y="221.0" font-weight="600" fill="currentColor">B</text><path d="M 100.0 132.0 C 100.0 144.5 100.0 144.5 100.0 157.0 C 100.0 168.5 100.0 168.5 100.0 180.0 C 100.0 192.5 100.0 192.5 100.0 205.0 C 100.0 233.0 100.0 233.0 100.0 261.0 C 100.0 273.5 100.0 273.5 100.0 286.0 C 100.0 290.0 100.0 290.0 100.0 294.0 C 100.0 306.5 100.0 306.5 100.0 319.0" fill="none" stroke="currentColor" stroke-dasharray="3 3" marker-end="url(#mmd-c4-arrow)"/><rect x="52.8" y="160.5" width="94.3" height="16" fill="var(--surface, #fff)"/><text x="100.0" y="172.5" text-anchor="middle" font-size="11" fill="currentColor">uses [https]</text><path d="M 100.0 371.0 C 100.0 383.5 100.0 383.5 100.0 396.0 C 100.0 407.5 100.0 407.5 100.0 419.0 C 100.0 431.5 100.0 431.5 100.0 444.0" fill="none" stroke="currentColor" stroke-dasharray="3 3" marker-end="url(#mmd-c4-arrow)"/><rect x="77.6" y="399.5" width="44.8" height="16" fill="var(--surface, #fff)"/><text x="100.0" y="411.5" text-anchor="middle" font-size="11" fill="currentColor">reads</text><circle cx="100.0" cy="62.0" r="11" fill="#08427b"/><rect x="40.0" y="66.0" width="120.0" height="66.0" fill="#08427b" rx="8"/><svg x="54.000" y="66.000" width="92.000" height="17.900" viewBox="54.000 66.000 92.000 17.900" overflow="hidden" style="overflow:hidden;max-width:none;width:92.000px;height:17.900px"><text x="100.0" y="80.0" text-anchor="middle" font-size="13" font-weight="700" font-style="normal" fill="#fff">P</text></svg><svg x="54.000" y="83.900" width="92.000" height="15.400" viewBox="54.000 83.900 92.000 15.400" overflow="hidden" style="overflow:hidden;max-width:none;width:92.000px;height:15.400px"><text x="100.0" y="96.0" text-anchor="middle" font-size="11" font-weight="400" font-style="italic" fill="#e8eef7">[Person]</text></svg><svg x="54.000" y="99.900" width="92.000" height="15.400" viewBox="54.000 99.900 92.000 15.400" overflow="hidden" style="overflow:hidden;max-width:none;width:92.000px;height:15.400px"><text x="100.0" y="112.0" text-anchor="middle" font-size="11" font-weight="400" font-style="normal" fill="#eaf1fb">d</text></svg><rect x="40.0" y="319.0" width="120.0" height="52.0" fill="#1168bd" rx="3"/><svg x="54.000" y="320.700" width="92.000" height="18.200" viewBox="54.000 320.700 92.000 18.200" overflow="hidden" style="overflow:hidden;max-width:none;width:92.000px;height:18.200px"><text x="100.0" y="335.0" text-anchor="middle" font-size="13" font-weight="700" font-style="normal" fill="#fff">S</text></svg><svg x="54.000" y="338.900" width="92.000" height="15.400" viewBox="54.000 338.900 92.000 15.400" overflow="hidden" style="overflow:hidden;max-width:none;width:92.000px;height:15.400px"><text x="100.0" y="351.0" text-anchor="middle" font-size="11" font-weight="400" font-style="italic" fill="#e8eef7">[System]</text></svg><path d="M 40.0 451.0 L 40.0 505.0 A 60.0 7 0 0 0 160.0 505.0 L 160.0 451.0 A 60.0 7 0 0 0 40.0 451.0 Z" fill="#1168bd"/><ellipse cx="100.0" cy="451.0" rx="60.0" ry="7" fill="#1168bd" stroke="#fff" stroke-opacity="0.4"/><svg x="64.805" y="445.700" width="70.390" height="18.200" viewBox="64.805 445.700 70.390 18.200" overflow="hidden" style="overflow:hidden;max-width:none;width:70.390px;height:18.200px"><text x="100.0" y="460.0" text-anchor="middle" font-size="13" font-weight="700" font-style="normal" fill="#fff" stroke="#1168bd" stroke-width="3" stroke-linejoin="round" paint-order="stroke">DB</text></svg><svg x="54.000" y="463.900" width="92.000" height="15.400" viewBox="54.000 463.900 92.000 15.400" overflow="hidden" style="overflow:hidden;max-width:none;width:92.000px;height:15.400px"><text x="100.0" y="476.0" text-anchor="middle" font-size="11" font-weight="400" font-style="italic" fill="#e8eef7">[SystemDb]</text></svg><svg x="54.000" y="479.900" width="92.000" height="15.400" viewBox="54.000 479.900 92.000 15.400" overflow="hidden" style="overflow:hidden;max-width:none;width:92.000px;height:15.400px"><text x="100.0" y="492.0" text-anchor="middle" font-size="11" font-weight="400" font-style="normal" fill="#eaf1fb">pg</text></svg></svg>