<svg xmlns="http://www.w3.org/2000/svg" viewBox="0 0 200 446" width="200" height="446" style="font-family:sans-serif;font-size:13px"><defs><marker id="mmd-c4-arrow" viewBox="0 0 10 10" refX="9" refY="5" markerWidth="8" markerHeight="8" orient="auto-start-reverse"><path d="M 0 0 L 10 5 L 0 10 z" fill="currentColor"/></marker></defs><text x="100.0" y="20" text-anchor="middle" font-weight="bold" font-size="17" fill="currentColor">System</text><rect x="20.0" y="182.0" width="160.0" height="244.0" fill="none" stroke="currentColor" stroke-dasharray="6 4" rx="4" opacity="0.7"/><text x="28.0" y="198.0" font-weight="600" fill="currentColor">B</text><path d="M 100.0 132.0 C 100.0 184.0 100.0 184.0 100.0 236.0" fill="none" stroke="currentColor" stroke-dasharray="3 3" marker-end="url(#mmd-c4-arrow)"/><rect x="52.8" y="149.0" width="94.3" height="16" fill="var(--surface, #fff)"/><text x="100.0" y="161.0" text-anchor="middle" font-size="11" fill="currentColor">uses [https]</text><path d="M 100.0 288.0 C 100.0 313.0 100.0 313.0 100.0 338.0" fill="none" stroke="currentColor" stroke-dasharray="3 3" marker-end="url(#mmd-c4-arrow)"/><rect x="77.6" y="305.0" width="44.8" height="16" fill="var(--surface, #fff)"/><text x="100.0" y="317.0" text-anchor="middle" font-size="11" fill="currentColor">reads</text><circle cx="100.0" cy="62.0" r="11" fill="#08427b"/><rect x="40.0" y="72.0" width="120.0" height="60.0" fill="#08427b" rx="8"/><text x="100.0" y="80.0" text-anchor="middle" font-weight="700" fill="#fff">P</text><text x="100.0" y="96.0" text-anchor="middle" font-size="11" font-style="italic" fill="#e8eef7">[Person]</text><text x="100.0" y="112.0" text-anchor="middle" font-size="11" fill="#eaf1fb">d</text><rect x="40.0" y="236.0" width="120.0" height="52.0" fill="#1168bd" rx="3"/><text x="100.0" y="252.0" text-anchor="middle" font-weight="700" fill="#fff">S</text><text x="100.0" y="268.0" text-anchor="middle" font-size="11" font-style="italic" fill="#e8eef7">[System]</text><path d="M 40.0 345.0 L 40.0 399.0 A 60.0 7 0 0 0 160.0 399.0 L 160.0 345.0 A 60.0 7 0 0 0 40.0 345.0 Z" fill="#1168bd"/><ellipse cx="100.0" cy="345.0" rx="60.0" ry="7" fill="#1168bd" stroke="#fff" stroke-opacity="0.4"/><text x="100.0" y="354.0" text-anchor="middle" font-weight="700" fill="#fff">DB</text><text x="100.0" y="370.0" text-anchor="middle" font-size="11" font-style="italic" fill="#e8eef7">[SystemDb]</text><text x="100.0" y="386.0" text-anchor="middle" font-size="11" fill="#eaf1fb">pg</text></svg>