<svg xmlns="http://www.w3.org/2000/svg" viewBox="0 0 602 450" width="602" height="450" style="max-width:602px;width:100%;font-family:sans-serif"><text x="225" y="25" text-anchor="middle" fill="currentColor" style="font-size:25px">Pets</text><path d="M 225 225 L 225.00 40.00 A 185 185 0 1 1 196.06 407.72 Z" fill="#ECECFF" fill-opacity="0.7" stroke="var(--mermaid-data-stroke, #444)" stroke-width="2"/><path d="M 225 225 L 196.06 407.72 A 185 185 0 0 1 154.20 54.08 Z" fill="#ffffde" fill-opacity="0.7" stroke="var(--mermaid-data-stroke, #444)" stroke-width="2"/><path d="M 225 225 L 154.20 54.08 A 185 185 0 0 1 225.00 40.00 Z" fill="hsl(80, 100%, 56.2745098039%)" fill-opacity="0.7" stroke="var(--mermaid-data-stroke, #444)" stroke-width="2"/><circle cx="225" cy="225" r="185" fill="none" stroke="var(--mermaid-data-stroke, #444)" stroke-width="2"/><rect class="pie-percentage-background" x="339.0" y="222.9" width="48.6" height="26" rx="2" fill="#ECECFF"/><text x="363.3" y="235.9" text-anchor="middle" dominant-baseline="middle" fill="var(--mermaid-data-text, #1a1a1a)" style="font-size:17px">53%</text><rect class="pie-percentage-background" x="62.9" y="228.3" width="48.6" height="26" rx="2" fill="#ffffde"/><text x="87.2" y="241.3" text-anchor="middle" dominant-baseline="middle" fill="var(--mermaid-data-text, #1a1a1a)" style="font-size:17px">41%</text><rect class="pie-percentage-background" x="179.7" y="75.9" width="36.4" height="26" rx="2" fill="hsl(80, 100%, 56.2745098039%)"/><text x="197.9" y="88.9" text-anchor="middle" dominant-baseline="middle" fill="var(--mermaid-data-text, #1a1a1a)" style="font-size:17px">6%</text><rect x="441" y="192.0" width="18" height="18" fill="#ECECFF"/><text x="463" y="206.0" fill="currentColor" style="font-size:17px">Dogs (42)</text><rect x="441" y="214.0" width="18" height="18" fill="#ffffde"/><text x="463" y="228.0" fill="currentColor" style="font-size:17px">Cats (33)</text><rect x="441" y="236.0" width="18" height="18" fill="hsl(80, 100%, 56.2745098039%)"/><text x="463" y="250.0" fill="currentColor" style="font-size:17px">Fish (5)</text></svg>