<svg xmlns="http://www.w3.org/2000/svg" viewBox="0 0 442 466" width="442" height="466" style="font-family:sans-serif;font-size:14px"><text x="232.0" y="38.0" text-anchor="middle" font-weight="bold" font-size="18" fill="currentColor">Reach</text><rect x="232.0" y="44.0" width="190.0" height="190.0" fill="var(--mermaid-quadrant-1, #eef4ff)"/><rect x="42.0" y="44.0" width="190.0" height="190.0" fill="var(--mermaid-quadrant-2, #fff7e8)"/><rect x="42.0" y="234.0" width="190.0" height="190.0" fill="var(--mermaid-quadrant-3, #fdeef6)"/><rect x="232.0" y="234.0" width="190.0" height="190.0" fill="var(--mermaid-quadrant-4, #eefaf1)"/><defs><mask id="mmd-quad-strokes-a09e62fe544150be" maskUnits="userSpaceOnUse" maskContentUnits="userSpaceOnUse" x="41.0" y="43.0" width="382.0" height="382.0"><rect x="41.0" y="43.0" width="382.0" height="382.0" fill="#fff"/><text x="164.0" y="238.0" font-size="12" fill="#000" stroke="#000" stroke-width="3">A</text><text x="354.0" y="352.0" font-size="12" fill="#000" stroke="#000" stroke-width="3">B</text><text x="327.0" y="139.0" text-anchor="middle" font-size="14" fill="#000" stroke="#000" stroke-width="3">Q1</text><text x="137.0" y="139.0" text-anchor="middle" font-size="14" fill="#000" stroke="#000" stroke-width="3">Q2</text><text x="137.0" y="329.0" text-anchor="middle" font-size="14" fill="#000" stroke="#000" stroke-width="3">Q3</text><text x="327.0" y="329.0" text-anchor="middle" font-size="14" fill="#000" stroke="#000" stroke-width="3">Q4</text></mask></defs><g mask="url(#mmd-quad-strokes-a09e62fe544150be)"><rect x="42.0" y="44.0" width="380.0" height="380.0" fill="none" stroke="currentColor"/><line x1="232.0" y1="44.0" x2="232.0" y2="424.0" stroke="currentColor"/><line x1="42.0" y1="234.0" x2="422.0" y2="234.0" stroke="currentColor"/></g><text x="327.0" y="139.0" text-anchor="middle" fill="currentColor" opacity="0.75">Q1</text><text x="137.0" y="139.0" text-anchor="middle" fill="currentColor" opacity="0.75">Q2</text><text x="137.0" y="329.0" text-anchor="middle" fill="currentColor" opacity="0.75">Q3</text><text x="327.0" y="329.0" text-anchor="middle" fill="currentColor" opacity="0.75">Q4</text><text x="42.0" y="440.0" text-anchor="start" font-size="12" fill="currentColor">Low</text><text x="422.0" y="440.0" text-anchor="end" font-size="12" fill="currentColor">High</text><text x="34.0" y="424.0" text-anchor="start" font-size="12" fill="currentColor" transform="rotate(-90 34.0 424.0)">Bottom</text><text x="34.0" y="44.0" text-anchor="end" font-size="12" fill="currentColor" transform="rotate(-90 34.0 44.0)">Top</text><defs><mask id="mmd-quad-points-a7da3cf71e7dc7ff" maskUnits="userSpaceOnUse" maskContentUnits="userSpaceOnUse" x="0" y="0" width="442.0" height="466.0"><rect width="442.0" height="466.0" fill="#fff"/><text x="164.0" y="238.0" font-size="12" fill="#000" stroke="#000" stroke-width="0.3">A</text><text x="354.0" y="352.0" font-size="12" fill="#000" stroke="#000" stroke-width="0.3">B</text><text x="327.0" y="139.0" text-anchor="middle" font-size="14" fill="#000" stroke="#000" stroke-width="0.3">Q1</text><text x="137.0" y="139.0" text-anchor="middle" font-size="14" fill="#000" stroke="#000" stroke-width="0.3">Q2</text><text x="137.0" y="329.0" text-anchor="middle" font-size="14" fill="#000" stroke="#000" stroke-width="0.3">Q3</text><text x="327.0" y="329.0" text-anchor="middle" font-size="14" fill="#000" stroke="#000" stroke-width="0.3">Q4</text></mask></defs><circle cx="156.0" cy="234.0" r="5" fill="#3b82f6" stroke="var(--surface, #fff)" stroke-width="1" mask="url(#mmd-quad-points-a7da3cf71e7dc7ff)"/><circle cx="346.0" cy="348.0" r="5" fill="#ef4444" stroke="var(--surface, #fff)" stroke-width="1" mask="url(#mmd-quad-points-a7da3cf71e7dc7ff)"/><text x="164.0" y="238.0" font-size="12" fill="currentColor">A</text><text x="354.0" y="352.0" font-size="12" fill="currentColor">B</text></svg>